<?xml version="1.0" encoding="utf-8"?>
<svg viewBox="-0.4 131.1 480 120" xmlns="http://www.w3.org/2000/svg">
  <g transform="matrix(1.058595061302185, 0, 0, 1.0236910581588745, -11.55167293548584, 116.37055206298828)">
    <title>dark</title>
    <g transform="matrix(1.01559, 0, 0, 1.01559, 10.242143, 35.238697)">
      <title>Siri Lakxmi</title>
      <path d="M 26.794 107.859 Q 26.325 107.859 25.953 107.706 Q 25.58 107.554 25.358 107.255 Q 25.135 106.956 25.123 106.535 L 26.233 106.535 Q 26.258 106.773 26.398 106.898 Q 26.538 107.023 26.764 107.023 Q 26.996 107.023 27.13 106.916 Q 27.264 106.809 27.264 106.62 Q 27.264 106.462 27.157 106.358 Q 27.051 106.254 26.895 106.187 Q 26.739 106.12 26.453 106.035 Q 26.038 105.907 25.776 105.779 Q 25.513 105.65 25.324 105.4 Q 25.135 105.15 25.135 104.748 Q 25.135 104.15 25.568 103.811 Q 26.001 103.473 26.697 103.473 Q 27.404 103.473 27.837 103.811 Q 28.271 104.15 28.301 104.754 L 27.173 104.754 Q 27.16 104.546 27.02 104.427 Q 26.88 104.308 26.66 104.308 Q 26.471 104.308 26.355 104.409 Q 26.239 104.51 26.239 104.699 Q 26.239 104.906 26.434 105.022 Q 26.63 105.138 27.044 105.272 Q 27.459 105.413 27.718 105.541 Q 27.978 105.669 28.167 105.913 Q 28.356 106.157 28.356 106.541 Q 28.356 106.907 28.17 107.206 Q 27.984 107.505 27.63 107.682 Q 27.276 107.859 26.794 107.859 Z" transform="matrix(6.688612, 0, 0, 6.688612, -83.580803, -688.181458)" style=""/>
      <path d="M 29.521 104.058 Q 29.246 104.058 29.073 103.897 Q 28.899 103.735 28.899 103.497 Q 28.899 103.253 29.073 103.092 Q 29.246 102.93 29.521 102.93 Q 29.789 102.93 29.963 103.092 Q 30.137 103.253 30.137 103.497 Q 30.137 103.735 29.963 103.897 Q 29.789 104.058 29.521 104.058 Z M 30.039 104.412 L 30.039 107.816 L 28.996 107.816 L 28.996 104.412 Z" transform="matrix(6.688612, 0, 0, 6.688612, -83.580803, -688.181458)" style=""/>
      <path d="M 31.839 104.979 Q 32.022 104.699 32.296 104.537 Q 32.571 104.376 32.906 104.376 L 32.906 105.48 L 32.62 105.48 Q 32.229 105.48 32.034 105.647 Q 31.839 105.815 31.839 106.236 L 31.839 107.816 L 30.796 107.816 L 30.796 104.412 L 31.839 104.412 L 31.839 104.979 Z" transform="matrix(6.688612, 0, 0, 6.688612, -83.580803, -688.181458)" style=""/>
      <path d="M 33.931 104.058 Q 33.657 104.058 33.483 103.897 Q 33.309 103.735 33.309 103.497 Q 33.309 103.253 33.483 103.092 Q 33.657 102.93 33.931 102.93 Q 34.199 102.93 34.373 103.092 Q 34.547 103.253 34.547 103.497 Q 34.547 103.735 34.373 103.897 Q 34.199 104.058 33.931 104.058 Z M 34.45 104.412 L 34.45 107.816 L 33.406 107.816 L 33.406 104.412 Z" transform="matrix(6.688612, 0, 0, 6.688612, -83.580803, -688.181458)" style=""/>
      <path d="M 13.582 113.111 L 14.948 113.111 L 14.948 113.916 L 12.539 113.916 L 12.539 109.634 L 13.582 109.634 Z" transform="matrix(6.688612, 0, 0, 6.688612, -83.580803, -688.181458)" style=""/>
      <path d="M 15.241 112.208 Q 15.241 111.683 15.439 111.287 Q 15.637 110.89 15.979 110.677 Q 16.32 110.463 16.741 110.463 Q 17.101 110.463 17.373 110.61 Q 17.644 110.756 17.79 110.994 L 17.79 110.512 L 18.834 110.512 L 18.834 113.916 L 17.79 113.916 L 17.79 113.434 Q 17.638 113.672 17.366 113.818 Q 17.095 113.965 16.735 113.965 Q 16.32 113.965 15.979 113.748 Q 15.637 113.532 15.439 113.132 Q 15.241 112.733 15.241 112.208 Z M 17.79 112.214 Q 17.79 111.824 17.574 111.598 Q 17.357 111.372 17.046 111.372 Q 16.735 111.372 16.519 111.595 Q 16.302 111.818 16.302 112.208 Q 16.302 112.598 16.519 112.827 Q 16.735 113.056 17.046 113.056 Q 17.357 113.056 17.574 112.83 Q 17.79 112.605 17.79 112.214 Z" transform="matrix(6.688612, 0, 0, 6.688612, -83.580803, -688.181458)" style=""/>
      <path d="M 21.67 113.916 L 20.633 112.489 L 20.633 113.916 L 19.59 113.916 L 19.59 109.402 L 20.633 109.402 L 20.633 111.897 L 21.664 110.512 L 22.951 110.512 L 21.536 112.22 L 22.963 113.916 Z" transform="matrix(6.688612, 0, 0, 6.688612, -83.580803, -688.181458)" style=""/>
      <path d="M 25.373 113.916 L 24.72 112.971 L 24.171 113.916 L 23.043 113.916 L 24.165 112.178 L 23.012 110.512 L 24.183 110.512 L 24.836 111.452 L 25.385 110.512 L 26.513 110.512 L 25.373 112.226 L 26.544 113.916 Z" transform="matrix(6.688612, 0, 0, 6.688612, -83.580803, -688.181458)" style=""/>
      <path d="M 31.29 110.476 Q 31.924 110.476 32.299 110.86 Q 32.674 111.244 32.674 111.927 L 32.674 113.916 L 31.637 113.916 L 31.637 112.068 Q 31.637 111.738 31.464 111.558 Q 31.29 111.378 30.985 111.378 Q 30.68 111.378 30.506 111.558 Q 30.332 111.738 30.332 112.068 L 30.332 113.916 L 29.295 113.916 L 29.295 112.068 Q 29.295 111.738 29.121 111.558 Q 28.947 111.378 28.642 111.378 Q 28.337 111.378 28.163 111.558 Q 27.99 111.738 27.99 112.068 L 27.99 113.916 L 26.946 113.916 L 26.946 110.512 L 27.99 110.512 L 27.99 110.939 Q 28.148 110.726 28.404 110.601 Q 28.661 110.476 28.984 110.476 Q 29.368 110.476 29.67 110.64 Q 29.972 110.805 30.143 111.11 Q 30.32 110.829 30.625 110.653 Q 30.93 110.476 31.29 110.476 Z" transform="matrix(6.688612, 0, 0, 6.688612, -83.580803, -688.181458)" style=""/>
      <path d="M 33.931 110.158 Q 33.657 110.158 33.483 109.997 Q 33.309 109.835 33.309 109.597 Q 33.309 109.353 33.483 109.192 Q 33.657 109.03 33.931 109.03 Q 34.199 109.03 34.373 109.192 Q 34.547 109.353 34.547 109.597 Q 34.547 109.835 34.373 109.997 Q 34.199 110.158 33.931 110.158 Z M 34.45 110.512 L 34.45 113.916 L 33.406 113.916 L 33.406 110.512 Z" transform="matrix(6.688612, 0, 0, 6.688612, -83.580803, -688.181458)" style=""/>
    </g>
    <g transform="matrix(0.20071, 0, 0, 0.228951, 168.640152, 14.38855)" style="">
      <title>hand</title>
      <path d="M155.362,334.191c9.122,0,17.698-3.55,24.141-10.001c4.42-4.412,7.228-9.779,8.713-15.42l17.929,17.92 c6.443,6.451,15.019,10.001,24.132,10.001c9.122,0,17.69-3.55,24.132-10.001c6.451-6.443,10.001-15.019,10.001-24.132 c0-9.122-3.55-17.69-10.001-24.141l-15.403-15.403c5.751-1.519,11.076-4.403,15.403-8.73 c6.451-6.451,10.001-15.019,10.001-24.141c0-9.114-3.55-17.69-10.001-24.132l-21.444-21.444c5.76-1.519,11.085-4.403,15.411-8.73 c6.451-6.443,10.001-15.01,10.001-24.132s-3.55-17.69-10.001-24.132l-60.518-60.527V8.533c0-4.71-3.823-8.533-8.533-8.533 c-4.71,0-8.533,3.823-8.533,8.533v45.397c-12.365-4.813-27.401-2.389-37.06,7.262c-10.59,10.607-12.604,26.436-6.323,39.185 c-6.622,1.169-12.919,4.19-17.818,9.096c-10.513,10.522-12.578,26.197-6.468,38.904c-6.647,1.271-12.774,4.471-17.664,9.361 c-10.513,10.522-12.587,26.206-6.468,38.912c-6.656,1.271-12.774,4.471-17.664,9.361c-6.451,6.443-10.001,15.019-10.001,24.132 c0,9.122,3.55,17.69,10.001,24.141l69.905,69.905C137.673,330.641,146.249,334.191,155.362,334.191z M145.796,73.259 c3.226-3.217,7.509-4.992,12.066-4.992c4.565,0,8.849,1.775,12.075,4.992l3.354,3.354l63.019,63.027 c3.226,3.226,5,7.509,5,12.066c0,4.557-1.775,8.841-5,12.066c-6.451,6.443-17.69,6.443-24.132,0l-66.381-66.372 C139.149,90.743,139.149,79.915,145.796,73.259z M121.655,121.54c3.226-3.226,7.518-5.001,12.075-5.001s8.841,1.775,12.066,5.001 l96.546,96.538c3.226,3.226,5,7.509,5,12.066c0,4.565-1.775,8.849-5,12.075c-6.443,6.443-17.69,6.443-24.132,0l-37.547-37.547 l-46.933-46.933c-0.009-0.009-0.009-0.009-0.017-0.017l-12.058-12.049C115.008,139.017,115.008,128.188,121.655,121.54z M97.523,169.805c3.226-3.217,7.509-4.992,12.075-4.992c4.548,0,8.832,1.766,12.049,4.975l46.95,46.95l73.745,73.754 c3.226,3.217,5,7.501,5,12.066c0,4.557-1.775,8.841-5,12.066c-6.443,6.443-17.69,6.443-24.132,0l-38.69-38.682 c0-0.009-0.009-0.017-0.017-0.026l-34.953-34.953l-47.019-47.019C90.876,187.29,90.876,176.461,97.523,169.805z M68.39,230.144 c0-4.557,1.775-8.841,5.001-12.066c3.226-3.217,7.509-4.992,12.066-4.992c4.565,0,8.849,1.775,12.066,4.992l4.924,4.924 l65.016,65.016c6.622,6.656,6.622,17.459-0.026,24.107c-6.443,6.443-17.69,6.451-24.141,0l-69.905-69.905 C70.165,238.993,68.39,234.709,68.39,230.144z" style=""/>
      <path d="M426.543,213.333c0,4.71,3.814,8.533,8.533,8.533c4.71,0,8.533-3.823,8.533-8.533c0-61.679-25.745-98.031-41.131-119.748 C397.99,87.245,392.41,79.36,392.41,76.8V8.533c0-4.71-3.823-8.533-8.533-8.533c-4.719,0-8.533,3.823-8.533,8.533V76.8 c0,7.987,5.538,15.821,13.218,26.65C403.682,124.809,426.543,157.082,426.543,213.333z" style=""/>
      <path d="M179.324,477.867c-4.71,0-8.533,3.823-8.533,8.533v17.067c0,4.71,3.823,8.533,8.533,8.533 c4.71,0,8.533-3.823,8.533-8.533V486.4C187.857,481.69,184.034,477.867,179.324,477.867z" style=""/>
      <path d="M405.67,223.3c-20.07-13.38-83.106-49.937-86.246-51.738c-5.7-2.842-12.032-2.449-17.818,1.135 c-12.476,7.706-20.13,28.86-20.13,40.636c0,16.393,11.503,26.359,23.689,36.907c4.224,3.652,8.585,7.441,12.945,11.793 l42.667,42.667c2.825,2.833,5.495,5.504,5.862,6.306c0.154,0.478,0.171,2.295,0.171,4.079c-2.014,5.393-17.775,23.415-31.343,37 l-94.131,85.589c-2.483,2.441-7.723,6.059-11.059,6.059h-76.8c-9.412,0-17.067-7.654-17.067-17.067s7.654-17.067,17.067-17.067 h59.733c11.725,0,21.965-9.907,23.1-11.034l59.733-59.733c3.328-3.336,3.328-8.73,0-12.066c-3.337-3.337-8.738-3.337-12.066,0 l-59.708,59.708c-2.483,2.441-7.723,6.059-11.059,6.059h-59.733h-25.6c-9.412,0-17.067-7.654-17.067-17.067 c0-9.412,7.654-17.067,17.067-17.067h68.267c4.71,0,8.533-3.823,8.533-8.533s-3.823-8.533-8.533-8.533h-68.267h-25.6 c-9.412,0-17.067-7.654-17.067-17.067c0-4.215,1.544-8.252,4.343-11.375c3.149-3.516,2.85-8.909-0.657-12.058 c-3.516-3.149-8.909-2.842-12.049,0.666c-5.615,6.263-8.704,14.345-8.704,22.767c0,17.596,13.423,31.949,30.541,33.775 c-3.072,5.12-4.941,11.034-4.941,17.425c0,17.596,13.423,31.949,30.541,33.775c-3.072,5.12-4.941,11.034-4.941,17.425 c0,18.825,15.309,34.133,34.133,34.133h76.8c11.725,0,21.965-9.907,22.81-10.752l94.157-85.615 c36.634-36.634,36.634-45.713,36.634-48.7c0-11.324-1.391-13.457-11.034-23.1l-42.667-42.667 c-4.787-4.796-9.6-8.951-13.841-12.629c-11.691-10.129-17.792-15.795-17.792-24.004c0-10.769,9.182-26.513,12.783-26.752 c0.648,0.375,65.246,37.828,84.881,50.918c22.067,14.711,47.403,37.871,47.403,86.767c0,36.625-28.8,86.281-47.855,119.134 c-13.619,23.475-20.164,35.106-20.164,42.999v17.067c0,4.71,3.823,8.533,8.533,8.533s8.533-3.823,8.533-8.533v-16.973 c0.35-4.335,9.651-20.378,17.86-34.526c21.163-36.497,50.159-86.477,50.159-127.701 C460.676,266.633,429.282,239.044,405.67,223.3z" style=""/>
    </g>
    <g transform="matrix(0.66546, 0, 0, 0.66546, 118.482979, 4.366266)" style="">
      <title>Center for human rehab</title>
      <path d="M 35.09 105.687 Q 35.09 105.065 35.371 104.568 Q 35.651 104.071 36.136 103.79 Q 36.621 103.509 37.213 103.509 Q 37.908 103.509 38.427 103.845 Q 38.945 104.18 39.183 104.796 L 38.518 104.796 Q 38.342 104.412 38.009 104.205 Q 37.677 103.997 37.213 103.997 Q 36.768 103.997 36.414 104.205 Q 36.06 104.412 35.859 104.793 Q 35.658 105.175 35.658 105.687 Q 35.658 106.193 35.859 106.575 Q 36.06 106.956 36.414 107.163 Q 36.768 107.371 37.213 107.371 Q 37.677 107.371 38.009 107.166 Q 38.342 106.962 38.518 106.578 L 39.183 106.578 Q 38.945 107.188 38.427 107.52 Q 37.908 107.853 37.213 107.853 Q 36.621 107.853 36.136 107.575 Q 35.651 107.297 35.371 106.803 Q 35.09 106.309 35.09 105.687 Z" transform="matrix(6.688612, 0, 0, 6.688612, 8.120317, -643.341492)" style=""/>
      <path d="M 43.057 106.016 Q 43.057 106.175 43.039 106.352 L 40.367 106.352 Q 40.397 106.846 40.705 107.124 Q 41.013 107.401 41.453 107.401 Q 41.812 107.401 42.053 107.233 Q 42.294 107.066 42.392 106.785 L 42.99 106.785 Q 42.856 107.267 42.453 107.569 Q 42.05 107.871 41.453 107.871 Q 40.977 107.871 40.602 107.657 Q 40.226 107.444 40.013 107.05 Q 39.799 106.657 39.799 106.138 Q 39.799 105.62 40.007 105.23 Q 40.214 104.839 40.589 104.629 Q 40.965 104.418 41.453 104.418 Q 41.928 104.418 42.294 104.626 Q 42.66 104.833 42.859 105.196 Q 43.057 105.559 43.057 106.016 Z M 42.483 105.901 Q 42.483 105.583 42.343 105.355 Q 42.203 105.126 41.962 105.007 Q 41.721 104.888 41.428 104.888 Q 41.007 104.888 40.711 105.156 Q 40.416 105.425 40.373 105.901 L 42.483 105.901 Z" transform="matrix(6.688612, 0, 0, 6.688612, 8.120317, -643.341492)" style=""/>
      <path d="M 45.418 104.412 Q 46.028 104.412 46.406 104.781 Q 46.784 105.15 46.784 105.846 L 46.784 107.816 L 46.235 107.816 L 46.235 105.925 Q 46.235 105.425 45.985 105.159 Q 45.735 104.894 45.302 104.894 Q 44.862 104.894 44.603 105.169 Q 44.344 105.443 44.344 105.968 L 44.344 107.816 L 43.789 107.816 L 43.789 104.473 L 44.344 104.473 L 44.344 104.949 Q 44.509 104.693 44.792 104.552 Q 45.076 104.412 45.418 104.412 Z" transform="matrix(6.688612, 0, 0, 6.688612, 8.120317, -643.341492)" style=""/>
      <path d="M 48.37 104.931 L 48.37 106.901 Q 48.37 107.145 48.473 107.246 Q 48.577 107.346 48.833 107.346 L 49.242 107.346 L 49.242 107.816 L 48.742 107.816 Q 48.278 107.816 48.046 107.602 Q 47.815 107.389 47.815 106.901 L 47.815 104.931 L 47.382 104.931 L 47.382 104.473 L 47.815 104.473 L 47.815 103.631 L 48.37 103.631 L 48.37 104.473 L 49.242 104.473 L 49.242 104.931 Z" transform="matrix(6.688612, 0, 0, 6.688612, 8.120317, -643.341492)" style=""/>
      <path d="M 52.963 106.016 Q 52.963 106.175 52.945 106.352 L 50.273 106.352 Q 50.303 106.846 50.611 107.124 Q 50.919 107.401 51.359 107.401 Q 51.719 107.401 51.96 107.233 Q 52.2 107.066 52.298 106.785 L 52.896 106.785 Q 52.762 107.267 52.359 107.569 Q 51.956 107.871 51.359 107.871 Q 50.883 107.871 50.508 107.657 Q 50.133 107.444 49.919 107.05 Q 49.706 106.657 49.706 106.138 Q 49.706 105.62 49.913 105.23 Q 50.12 104.839 50.496 104.629 Q 50.871 104.418 51.359 104.418 Q 51.834 104.418 52.2 104.626 Q 52.566 104.833 52.765 105.196 Q 52.963 105.559 52.963 106.016 Z M 52.39 105.901 Q 52.39 105.583 52.249 105.355 Q 52.109 105.126 51.868 105.007 Q 51.627 104.888 51.334 104.888 Q 50.913 104.888 50.618 105.156 Q 50.322 105.425 50.279 105.901 L 52.39 105.901 Z" transform="matrix(6.688612, 0, 0, 6.688612, 8.120317, -643.341492)" style=""/>
      <path d="M 54.25 105.016 Q 54.396 104.729 54.668 104.571 Q 54.939 104.412 55.33 104.412 L 55.33 104.986 L 55.183 104.986 Q 54.25 104.986 54.25 105.998 L 54.25 107.816 L 53.695 107.816 L 53.695 104.473 L 54.25 104.473 L 54.25 105.016 Z" transform="matrix(6.688612, 0, 0, 6.688612, 8.120317, -643.341492)" style=""/>
      <path d="M 58.959 104.931 L 58.258 104.931 L 58.258 107.816 L 57.703 107.816 L 57.703 104.931 L 57.27 104.931 L 57.27 104.473 L 57.703 104.473 L 57.703 104.235 Q 57.703 103.674 57.993 103.415 Q 58.282 103.156 58.923 103.156 L 58.923 103.619 Q 58.557 103.619 58.407 103.763 Q 58.258 103.906 58.258 104.235 L 58.258 104.473 L 58.959 104.473 Z" transform="matrix(6.688612, 0, 0, 6.688612, 8.120317, -643.341492)" style=""/>
      <path d="M 61.064 107.871 Q 60.594 107.871 60.213 107.657 Q 59.832 107.444 59.615 107.05 Q 59.399 106.657 59.399 106.138 Q 59.399 105.626 59.621 105.233 Q 59.844 104.839 60.228 104.629 Q 60.612 104.418 61.088 104.418 Q 61.564 104.418 61.948 104.629 Q 62.333 104.839 62.555 105.23 Q 62.778 105.62 62.778 106.138 Q 62.778 106.657 62.549 107.05 Q 62.32 107.444 61.93 107.657 Q 61.54 107.871 61.064 107.871 Z M 61.064 107.383 Q 61.363 107.383 61.625 107.243 Q 61.887 107.102 62.049 106.822 Q 62.211 106.541 62.211 106.138 Q 62.211 105.736 62.052 105.455 Q 61.893 105.175 61.637 105.037 Q 61.381 104.9 61.082 104.9 Q 60.777 104.9 60.524 105.037 Q 60.271 105.175 60.118 105.455 Q 59.966 105.736 59.966 106.138 Q 59.966 106.547 60.115 106.828 Q 60.265 107.108 60.515 107.246 Q 60.765 107.383 61.064 107.383 Z" transform="matrix(6.688612, 0, 0, 6.688612, 8.120317, -643.341492)" style=""/>
      <path d="M 64.065 105.016 Q 64.212 104.729 64.483 104.571 Q 64.754 104.412 65.145 104.412 L 65.145 104.986 L 64.998 104.986 Q 64.065 104.986 64.065 105.998 L 64.065 107.816 L 63.51 107.816 L 63.51 104.473 L 64.065 104.473 L 64.065 105.016 Z" transform="matrix(6.688612, 0, 0, 6.688612, 8.120317, -643.341492)" style=""/>
      <path d="M 38.573 109.664 L 38.573 113.916 L 38.018 113.916 L 38.018 111.988 L 35.853 111.988 L 35.853 113.916 L 35.298 113.916 L 35.298 109.664 L 35.853 109.664 L 35.853 111.531 L 38.018 111.531 L 38.018 109.664 Z" transform="matrix(6.688612, 0, 0, 6.688612, 8.120317, -643.341492)" style=""/>
      <path d="M 42.483 110.573 L 42.483 113.916 L 41.928 113.916 L 41.928 113.422 Q 41.77 113.678 41.486 113.821 Q 41.202 113.965 40.861 113.965 Q 40.47 113.965 40.159 113.803 Q 39.848 113.642 39.668 113.318 Q 39.488 112.995 39.488 112.531 L 39.488 110.573 L 40.037 110.573 L 40.037 112.458 Q 40.037 112.952 40.287 113.218 Q 40.537 113.483 40.971 113.483 Q 41.416 113.483 41.672 113.208 Q 41.928 112.934 41.928 112.409 L 41.928 110.573 Z" transform="matrix(6.688612, 0, 0, 6.688612, 8.120317, -643.341492)" style=""/>
      <path d="M 47.442 110.512 Q 47.833 110.512 48.138 110.674 Q 48.443 110.836 48.62 111.159 Q 48.797 111.482 48.797 111.946 L 48.797 113.916 L 48.248 113.916 L 48.248 112.025 Q 48.248 111.525 48.001 111.259 Q 47.754 110.994 47.333 110.994 Q 46.9 110.994 46.643 111.272 Q 46.387 111.549 46.387 112.074 L 46.387 113.916 L 45.838 113.916 L 45.838 112.025 Q 45.838 111.525 45.591 111.259 Q 45.344 110.994 44.923 110.994 Q 44.49 110.994 44.234 111.272 Q 43.978 111.549 43.978 112.074 L 43.978 113.916 L 43.423 113.916 L 43.423 110.573 L 43.978 110.573 L 43.978 111.055 Q 44.142 110.793 44.42 110.653 Q 44.697 110.512 45.033 110.512 Q 45.454 110.512 45.777 110.701 Q 46.1 110.89 46.259 111.256 Q 46.399 110.903 46.723 110.707 Q 47.046 110.512 47.442 110.512 Z" transform="matrix(6.688612, 0, 0, 6.688612, 8.120317, -643.341492)" style=""/>
      <path d="M 49.498 112.232 Q 49.498 111.72 49.706 111.333 Q 49.913 110.945 50.276 110.732 Q 50.639 110.518 51.084 110.518 Q 51.523 110.518 51.847 110.707 Q 52.17 110.897 52.329 111.183 L 52.329 110.573 L 52.89 110.573 L 52.89 113.916 L 52.329 113.916 L 52.329 113.294 Q 52.164 113.587 51.838 113.779 Q 51.511 113.971 51.078 113.971 Q 50.633 113.971 50.273 113.751 Q 49.913 113.532 49.706 113.135 Q 49.498 112.739 49.498 112.232 Z M 52.329 112.239 Q 52.329 111.86 52.176 111.58 Q 52.024 111.299 51.764 111.15 Q 51.505 111 51.194 111 Q 50.883 111 50.627 111.147 Q 50.37 111.293 50.218 111.574 Q 50.065 111.854 50.065 112.232 Q 50.065 112.617 50.218 112.9 Q 50.37 113.184 50.627 113.333 Q 50.883 113.483 51.194 113.483 Q 51.505 113.483 51.764 113.333 Q 52.024 113.184 52.176 112.9 Q 52.329 112.617 52.329 112.239 Z" transform="matrix(6.688612, 0, 0, 6.688612, 8.120317, -643.341492)" style=""/>
      <path d="M 55.458 110.512 Q 56.068 110.512 56.446 110.881 Q 56.824 111.25 56.824 111.946 L 56.824 113.916 L 56.275 113.916 L 56.275 112.025 Q 56.275 111.525 56.025 111.259 Q 55.775 110.994 55.342 110.994 Q 54.903 110.994 54.644 111.269 Q 54.384 111.543 54.384 112.068 L 54.384 113.916 L 53.829 113.916 L 53.829 110.573 L 54.384 110.573 L 54.384 111.049 Q 54.549 110.793 54.833 110.653 Q 55.116 110.512 55.458 110.512 Z" transform="matrix(6.688612, 0, 0, 6.688612, 8.120317, -643.341492)" style=""/>
      <path d="M 37.536 120.016 L 36.524 118.277 L 35.853 118.277 L 35.853 120.016 L 35.298 120.016 L 35.298 115.764 L 36.67 115.764 Q 37.152 115.764 37.485 115.929 Q 37.817 116.094 37.982 116.374 Q 38.146 116.655 38.146 117.015 Q 38.146 117.454 37.893 117.789 Q 37.64 118.125 37.134 118.235 L 38.201 120.016 Z M 35.853 117.832 L 36.67 117.832 Q 37.122 117.832 37.347 117.61 Q 37.573 117.387 37.573 117.015 Q 37.573 116.637 37.35 116.429 Q 37.128 116.222 36.67 116.222 L 35.853 116.222 Z" transform="matrix(6.688612, 0, 0, 6.688612, 8.120317, -643.341492)" style=""/>
      <path d="M 42.056 118.216 Q 42.056 118.375 42.038 118.552 L 39.366 118.552 Q 39.397 119.046 39.705 119.324 Q 40.013 119.601 40.452 119.601 Q 40.812 119.601 41.053 119.433 Q 41.294 119.266 41.391 118.985 L 41.989 118.985 Q 41.855 119.467 41.452 119.769 Q 41.05 120.071 40.452 120.071 Q 39.976 120.071 39.601 119.857 Q 39.226 119.644 39.012 119.25 Q 38.799 118.857 38.799 118.338 Q 38.799 117.82 39.006 117.43 Q 39.214 117.039 39.589 116.829 Q 39.964 116.618 40.452 116.618 Q 40.928 116.618 41.294 116.826 Q 41.66 117.033 41.858 117.396 Q 42.056 117.759 42.056 118.216 Z M 41.483 118.101 Q 41.483 117.783 41.343 117.555 Q 41.202 117.326 40.961 117.207 Q 40.72 117.088 40.428 117.088 Q 40.007 117.088 39.711 117.356 Q 39.415 117.625 39.372 118.101 L 41.483 118.101 Z" transform="matrix(6.688612, 0, 0, 6.688612, 8.120317, -643.341492)" style=""/>
      <path d="M 44.448 116.612 Q 44.826 116.612 45.131 116.774 Q 45.436 116.935 45.61 117.259 Q 45.783 117.582 45.783 118.046 L 45.783 120.016 L 45.234 120.016 L 45.234 118.125 Q 45.234 117.625 44.984 117.359 Q 44.734 117.094 44.301 117.094 Q 43.862 117.094 43.603 117.369 Q 43.343 117.643 43.343 118.168 L 43.343 120.016 L 42.788 120.016 L 42.788 115.502 L 43.343 115.502 L 43.343 117.149 Q 43.508 116.893 43.798 116.752 Q 44.088 116.612 44.448 116.612 Z" transform="matrix(6.688612, 0, 0, 6.688612, 8.120317, -643.341492)" style=""/>
      <path d="M 46.485 118.332 Q 46.485 117.82 46.692 117.433 Q 46.9 117.045 47.263 116.832 Q 47.625 116.618 48.071 116.618 Q 48.51 116.618 48.833 116.807 Q 49.157 116.996 49.315 117.283 L 49.315 116.673 L 49.876 116.673 L 49.876 120.016 L 49.315 120.016 L 49.315 119.394 Q 49.15 119.687 48.824 119.879 Q 48.498 120.071 48.065 120.071 Q 47.619 120.071 47.259 119.851 Q 46.9 119.632 46.692 119.235 Q 46.485 118.839 46.485 118.332 Z M 49.315 118.338 Q 49.315 117.96 49.163 117.68 Q 49.01 117.399 48.751 117.25 Q 48.492 117.1 48.181 117.1 Q 47.869 117.1 47.613 117.247 Q 47.357 117.393 47.205 117.674 Q 47.052 117.954 47.052 118.332 Q 47.052 118.717 47.205 119 Q 47.357 119.284 47.613 119.433 Q 47.869 119.583 48.181 119.583 Q 48.492 119.583 48.751 119.433 Q 49.01 119.284 49.163 119 Q 49.315 118.717 49.315 118.338 Z" transform="matrix(6.688612, 0, 0, 6.688612, 8.120317, -643.341492)" style=""/>
      <path d="M 51.371 117.295 Q 51.542 116.996 51.871 116.807 Q 52.201 116.618 52.621 116.618 Q 53.073 116.618 53.433 116.832 Q 53.793 117.045 54 117.433 Q 54.207 117.82 54.207 118.332 Q 54.207 118.839 54 119.235 Q 53.793 119.632 53.43 119.851 Q 53.067 120.071 52.621 120.071 Q 52.188 120.071 51.862 119.882 Q 51.536 119.693 51.371 119.4 L 51.371 120.016 L 50.816 120.016 L 50.816 115.502 L 51.371 115.502 L 51.371 117.295 Z M 53.64 118.332 Q 53.64 117.954 53.488 117.674 Q 53.335 117.393 53.076 117.247 Q 52.817 117.1 52.506 117.1 Q 52.201 117.1 51.941 117.25 Q 51.682 117.399 51.527 117.683 Q 51.371 117.966 51.371 118.338 Q 51.371 118.717 51.527 119 Q 51.682 119.284 51.941 119.433 Q 52.201 119.583 52.506 119.583 Q 52.817 119.583 53.076 119.433 Q 53.335 119.284 53.488 119 Q 53.64 118.717 53.64 118.332 Z" transform="matrix(6.688612, 0, 0, 6.688612, 8.120317, -643.341492)" style=""/>
      <path d="M 55.226 116.13 Q 55.068 116.13 54.958 116.02 Q 54.848 115.911 54.848 115.752 Q 54.848 115.593 54.958 115.484 Q 55.068 115.374 55.226 115.374 Q 55.379 115.374 55.485 115.484 Q 55.592 115.593 55.592 115.752 Q 55.592 115.911 55.485 116.02 Q 55.379 116.13 55.226 116.13 Z M 55.495 116.673 L 55.495 120.016 L 54.94 120.016 L 54.94 116.673 Z" transform="matrix(6.688612, 0, 0, 6.688612, 8.120317, -643.341492)" style=""/>
      <path d="M 56.995 115.502 L 56.995 120.016 L 56.44 120.016 L 56.44 115.502 Z" transform="matrix(6.688612, 0, 0, 6.688612, 8.120317, -643.341492)" style=""/>
      <path d="M 58.227 116.13 Q 58.069 116.13 57.959 116.02 Q 57.849 115.911 57.849 115.752 Q 57.849 115.593 57.959 115.484 Q 58.069 115.374 58.227 115.374 Q 58.38 115.374 58.487 115.484 Q 58.593 115.593 58.593 115.752 Q 58.593 115.911 58.487 116.02 Q 58.38 116.13 58.227 116.13 Z M 58.496 116.673 L 58.496 120.016 L 57.941 120.016 L 57.941 116.673 Z" transform="matrix(6.688612, 0, 0, 6.688612, 8.120317, -643.341492)" style=""/>
      <path d="M 60.118 117.131 L 60.118 119.101 Q 60.118 119.345 60.222 119.446 Q 60.326 119.546 60.582 119.546 L 60.991 119.546 L 60.991 120.016 L 60.49 120.016 Q 60.027 120.016 59.795 119.802 Q 59.563 119.589 59.563 119.101 L 59.563 117.131 L 59.13 117.131 L 59.13 116.673 L 59.563 116.673 L 59.563 115.831 L 60.118 115.831 L 60.118 116.673 L 60.991 116.673 L 60.991 117.131 Z" transform="matrix(6.688612, 0, 0, 6.688612, 8.120317, -643.341492)" style=""/>
      <path d="M 61.454 118.332 Q 61.454 117.82 61.662 117.433 Q 61.869 117.045 62.232 116.832 Q 62.595 116.618 63.04 116.618 Q 63.479 116.618 63.803 116.807 Q 64.126 116.996 64.285 117.283 L 64.285 116.673 L 64.846 116.673 L 64.846 120.016 L 64.285 120.016 L 64.285 119.394 Q 64.12 119.687 63.793 119.879 Q 63.467 120.071 63.034 120.071 Q 62.589 120.071 62.229 119.851 Q 61.869 119.632 61.662 119.235 Q 61.454 118.839 61.454 118.332 Z M 64.285 118.338 Q 64.285 117.96 64.132 117.68 Q 63.98 117.399 63.72 117.25 Q 63.461 117.1 63.15 117.1 Q 62.839 117.1 62.583 117.247 Q 62.326 117.393 62.174 117.674 Q 62.021 117.954 62.021 118.332 Q 62.021 118.717 62.174 119 Q 62.326 119.284 62.583 119.433 Q 62.839 119.583 63.15 119.583 Q 63.461 119.583 63.72 119.433 Q 63.98 119.284 64.132 119 Q 64.285 118.717 64.285 118.338 Z" transform="matrix(6.688612, 0, 0, 6.688612, 8.120317, -643.341492)" style=""/>
      <path d="M 66.462 117.131 L 66.462 119.101 Q 66.462 119.345 66.566 119.446 Q 66.67 119.546 66.926 119.546 L 67.335 119.546 L 67.335 120.016 L 66.834 120.016 Q 66.371 120.016 66.139 119.802 Q 65.907 119.589 65.907 119.101 L 65.907 117.131 L 65.474 117.131 L 65.474 116.673 L 65.907 116.673 L 65.907 115.831 L 66.462 115.831 L 66.462 116.673 L 67.335 116.673 L 67.335 117.131 Z" transform="matrix(6.688612, 0, 0, 6.688612, 8.120317, -643.341492)" style=""/>
      <path d="M 68.292 116.13 Q 68.134 116.13 68.024 116.02 Q 67.914 115.911 67.914 115.752 Q 67.914 115.593 68.024 115.484 Q 68.134 115.374 68.292 115.374 Q 68.445 115.374 68.551 115.484 Q 68.658 115.593 68.658 115.752 Q 68.658 115.911 68.551 116.02 Q 68.445 116.13 68.292 116.13 Z M 68.561 116.673 L 68.561 120.016 L 68.005 120.016 L 68.005 116.673 Z" transform="matrix(6.688612, 0, 0, 6.688612, 8.120317, -643.341492)" style=""/>
      <path d="M 70.964 120.071 Q 70.494 120.071 70.113 119.857 Q 69.732 119.644 69.515 119.25 Q 69.299 118.857 69.299 118.338 Q 69.299 117.826 69.521 117.433 Q 69.744 117.039 70.128 116.829 Q 70.513 116.618 70.989 116.618 Q 71.464 116.618 71.849 116.829 Q 72.233 117.039 72.456 117.43 Q 72.678 117.82 72.678 118.338 Q 72.678 118.857 72.449 119.25 Q 72.221 119.644 71.83 119.857 Q 71.44 120.071 70.964 120.071 Z M 70.964 119.583 Q 71.263 119.583 71.525 119.443 Q 71.788 119.302 71.949 119.022 Q 72.111 118.741 72.111 118.338 Q 72.111 117.936 71.952 117.655 Q 71.794 117.375 71.538 117.237 Q 71.281 117.1 70.982 117.1 Q 70.677 117.1 70.424 117.237 Q 70.171 117.375 70.019 117.655 Q 69.866 117.936 69.866 118.338 Q 69.866 118.747 70.016 119.028 Q 70.165 119.308 70.415 119.446 Q 70.665 119.583 70.964 119.583 Z" transform="matrix(6.688612, 0, 0, 6.688612, 8.120317, -643.341492)" style=""/>
      <path d="M 75.039 116.612 Q 75.649 116.612 76.027 116.981 Q 76.405 117.35 76.405 118.046 L 76.405 120.016 L 75.856 120.016 L 75.856 118.125 Q 75.856 117.625 75.606 117.359 Q 75.356 117.094 74.923 117.094 Q 74.484 117.094 74.224 117.369 Q 73.965 117.643 73.965 118.168 L 73.965 120.016 L 73.41 120.016 L 73.41 116.673 L 73.965 116.673 L 73.965 117.149 Q 74.13 116.893 74.414 116.752 Q 74.697 116.612 75.039 116.612 Z" transform="matrix(6.688612, 0, 0, 6.688612, 8.120317, -643.341492)" style=""/>
    </g>
  </g>
</svg>